<svg width="1200" height="800" viewBox="0 0 1200 800" xmlns="http://www.w3.org/2000/svg">
  <defs>
    <linearGradient id="bg" x1="0" y1="0" x2="1200" y2="800" gradientUnits="userSpaceOnUse">
      <stop offset="0" stop-color="#1c1c1f"/>
      <stop offset="1" stop-color="#0a0a0b"/>
    </linearGradient>
    <pattern id="grid" width="40" height="40" patternUnits="userSpaceOnUse">
      <path d="M 40 0 L 0 0 0 40" fill="none" stroke="#ffffff" stroke-opacity="0.045" stroke-width="1"/>
    </pattern>
    <radialGradient id="glow" cx="0.5" cy="0.42" r="0.6">
      <stop offset="0" stop-color="#ffffff" stop-opacity="0.10"/>
      <stop offset="1" stop-color="#ffffff" stop-opacity="0"/>
    </radialGradient>
  </defs>

  <rect width="1200" height="800" fill="url(#bg)"/>
  <rect width="1200" height="800" fill="url(#grid)"/>
  <rect width="1200" height="800" fill="url(#glow)"/>

  <circle cx="600" cy="340" r="230" fill="none" stroke="#ffffff" stroke-opacity="0.07" stroke-width="1.5"/>
  <circle cx="600" cy="340" r="160" fill="none" stroke="#ffffff" stroke-opacity="0.09" stroke-width="1.5"/>

  <g transform="translate(552,292)">
    <rect x="0" y="0" width="96" height="96" rx="24" fill="#ffffff" fill-opacity="0.06" stroke="#ffffff" stroke-opacity="0.2"/>
    <g transform="translate(48,48)" stroke="#ffffff" fill="none" stroke-width="4" stroke-linecap="round" stroke-linejoin="round">
      <path d="M -34 -8 L 0 -24 L 34 -8 L 0 8 Z" stroke-opacity="0.95"/>
      <path d="M -18 0 L -18 16 A 18 10 0 0 0 18 16 L 18 0" stroke-opacity="0.7"/>
      <line x1="34" y1="-8" x2="34" y2="14" stroke-opacity="0.6"/>
    </g>
  </g>

  <text x="600" y="470" fill="#ffffff" fill-opacity="0.5" font-family="Arial, Helvetica, sans-serif" font-size="20" letter-spacing="3" text-anchor="middle">EDTECH &#183; AI-POWERED LEARNING</text>
</svg>
